<svg width="443px" height="56px" viewBox="0 0 443 56" version="1.1" xmlns="http://www.w3.org/2000/svg" xmlns:xlink="http://www.w3.org/1999/xlink" style="">
    <g id="Page-1" stroke="none" stroke-width="1" fill="none" fill-rule="evenodd">
        <g id="PC_ol" transform="translate(-462.000000, -3739.000000)" fill="#FFFFFF" fill-rule="nonzero">
            <path d="M482.2,3795 L482.2,3793.72 C478.2,3793.72 476.36,3791.88 476.36,3789.08 L476.36,3745 C476.36,3742.2 478.28,3740.36 482.2,3740.36 L482.2,3739.08 L462.84,3739.08 L462.84,3740.36 C466.84,3740.36 468.76,3742.2 468.76,3745 L468.76,3789.08 C468.76,3791.88 466.84,3793.72 462.84,3793.72 L462.84,3795 L482.2,3795 Z M499,3795 L499,3793.72 C495,3793.72 493.16,3791.88 493.16,3789.08 L493.16,3745.48 L528.44,3795 L534.76,3795 L534.76,3745 C534.76,3742.2 536.68,3740.36 540.68,3740.36 L540.68,3739.08 L527.64,3739.08 L527.64,3740.36 C531.64,3740.36 533.48,3742.2 533.48,3745 L533.48,3788.92 L497.96,3739.08 L485.96,3739.08 L485.96,3740.36 C489.96,3740.36 491.88,3742.2 491.88,3745 L491.88,3789.08 C491.88,3791.88 489.96,3793.72 485.96,3793.72 L485.96,3795 L499,3795 Z M575.24,3795 L575.24,3793.72 C571.16,3793.72 569.32,3791.88 569.32,3789.08 L569.32,3740.36 L581.8,3740.36 C583.72,3740.36 585.96,3743.56 587.4,3748.52 L588.52,3748.52 L586.52,3739.08 L544.52,3739.08 L542.52,3748.52 L543.72,3748.52 C545.16,3743.56 547.32,3740.36 549.24,3740.36 L561.72,3740.44 L561.72,3789.08 C561.72,3791.88 559.8,3793.72 555.88,3793.72 L555.88,3795 L575.24,3795 Z M633.8,3795 L635.8,3785.56 L634.6,3785.56 C633.16,3790.52 631,3793.72 629.08,3793.72 L604.76,3793.72 L604.76,3765.4 L620.84,3765.4 C622.84,3765.4 626.2,3766.76 626.12,3772.6 L627.32,3772.6 L627.32,3757 L626.12,3757 C626.2,3762.76 622.84,3764.12 620.84,3764.12 L604.76,3764.12 L604.76,3740.44 L629.08,3740.36 C631,3740.36 633.16,3743.56 634.6,3748.52 L635.8,3748.52 L633.8,3739.08 L590.44,3739.08 L590.44,3740.36 C594.52,3740.36 597.16,3742.36 597.16,3745 L597.16,3789.08 C597.16,3791.72 594.52,3793.72 590.44,3793.72 L590.44,3795 L633.8,3795 Z M686.68,3792.28 C688.04,3790.84 687.32,3789.88 685.96,3791.32 C677.24,3800.6 682.52,3770.92 664.92,3767.48 C674.36,3766.36 680.36,3760.52 680.36,3753.08 C680.36,3745.24 672.92,3739.08 661.8,3739.08 L641.56,3739.08 L641.56,3739.72 C644.12,3739.72 645.72,3740.68 645.72,3741.96 L645.72,3789 C645.72,3791.8 643.88,3793.64 639.8,3793.64 L639.8,3794.92 L659.16,3794.92 L659.16,3793.64 C655.24,3793.64 653.32,3791.8 653.32,3789 L653.32,3767.72 L660.28,3767.72 C674.2,3767.72 668.12,3795 679.88,3795 C682.28,3795 684.2,3794.92 686.68,3792.28 Z M661.48,3767 L653.32,3767 L653.32,3739.8 L661.48,3739.8 C668.2,3739.8 672.76,3745.72 672.76,3753.08 C672.76,3761.08 668.44,3767 661.48,3767 Z M720.6,3795 L740.04,3745 C741.16,3742.2 743.16,3740.36 747.24,3740.36 L747.24,3739.08 L734.04,3739.08 L734.04,3740.36 C737.96,3740.36 739.72,3742.2 738.68,3745 L722.68,3785.96 L704.04,3745 C702.84,3742.2 703.88,3740.36 707.88,3740.36 L707.88,3739.08 L687.64,3739.08 L687.64,3740.36 C691.72,3740.36 694.36,3742.2 695.64,3745 L718.44,3795 L720.6,3795 Z M768.2,3795 L768.2,3793.72 C764.2,3793.72 762.36,3791.88 762.36,3789.08 L762.36,3745 C762.36,3742.2 764.28,3740.36 768.2,3740.36 L768.2,3739.08 L748.84,3739.08 L748.84,3740.36 C752.84,3740.36 754.76,3742.2 754.76,3745 L754.76,3789.08 C754.76,3791.88 752.84,3793.72 748.84,3793.72 L748.84,3795 L768.2,3795 Z M815,3795 L817,3785.56 L815.8,3785.56 C814.36,3790.52 812.2,3793.72 810.28,3793.72 L785.96,3793.72 L785.96,3765.4 L802.04,3765.4 C804.04,3765.4 807.4,3766.76 807.32,3772.6 L808.52,3772.6 L808.52,3757 L807.32,3757 C807.4,3762.76 804.04,3764.12 802.04,3764.12 L785.96,3764.12 L785.96,3740.44 L810.28,3740.36 C812.2,3740.36 814.36,3743.56 815.8,3748.52 L817,3748.52 L815,3739.08 L771.64,3739.08 L771.64,3740.36 C775.72,3740.36 778.36,3742.36 778.36,3745 L778.36,3789.08 C778.36,3791.72 775.72,3793.72 771.64,3793.72 L771.64,3795 L815,3795 Z M848.52,3795 L862.44,3751.8 L879.16,3795 L881.4,3795 L897.48,3745 C898.44,3742.2 900.6,3740.36 904.68,3740.36 L904.68,3739.08 L891.4,3739.08 L891.4,3740.36 C895.4,3740.36 897,3742.2 896.04,3745 L883.32,3784.6 L867.96,3745 C867.16,3742.84 867.56,3741.24 869.64,3740.6 C870.36,3740.52 871,3740.36 871.8,3740.36 L871.8,3739.08 L851.8,3739.08 L851.8,3740.36 C855.88,3740.36 858.68,3742.2 859.8,3745 L861.64,3749.8 L850.44,3784.6 L835.08,3745 C834.04,3742.2 834.92,3740.36 838.92,3740.36 L838.92,3739.08 L818.92,3739.08 L818.92,3740.36 C823,3740.36 825.8,3742.2 826.92,3745 L846.28,3795 L848.52,3795 Z" id="INTERVIEW" class="YppAZGyY_0" style="fill: #999"></path>
        </g>
    </g>
<style data-made-with="vivus-instant">.YppAZGyY_0{stroke-dasharray:2818 2820;stroke-dashoffset:2819;animation:YppAZGyY_draw 2000ms linear 0ms forwards;}@keyframes YppAZGyY_draw{100%{stroke-dashoffset:0;}}@keyframes YppAZGyY_fade{0%{stroke-opacity:1;}94.44444444444444%{stroke-opacity:1;}100%{stroke-opacity:0;}}</style></svg>