<?xml version="1.0" encoding="utf-8"?>
<!-- Generator: Adobe Illustrator 26.3.1, SVG Export Plug-In . SVG Version: 6.00 Build 0)  -->
<svg version="1.1" id="レイヤー_1" xmlns="http://www.w3.org/2000/svg" xmlns:xlink="http://www.w3.org/1999/xlink" x="0px"
	 y="0px" viewBox="0 0 700 700" style="enable-background:new 0 0 700 700;" xml:space="preserve">
<style type="text/css">
	.st0{fill:none;}
</style>
<path d="M612.5,262c-3.9-40.5-17.8-82.2-39.3-117.1c-22.2-37-54.9-68.6-94.2-91.3c-4.5-2.9-9.1-5.1-13.6-7.2l-2-1
	c-1.6-0.8-3.2-1.6-4.9-2.4c-3.4-1.7-6.8-3.3-10.7-4.8c-2.9-1-5.6-2.1-8.4-3.1c-7.6-2.9-15.3-5.8-23.1-7.4c-24-7.1-48.5-8.8-67.5-9.4
	c-45.6,0.1-91.4,11.8-128.8,32.9l-5.5,3.2c-7.7,4.5-15.6,9.2-22.5,14.7c-1.4,1.1-2.9,2.1-4.3,3.2c-3,2.2-5.9,4.3-8.8,6.9l-13.6,12.3
	c-1.3,1.2-2.8,2.5-4.3,4.1L145,113.4l-10,13.4c-2.9,3.8-5.9,7.8-8.1,11.9c-21.8,34.7-35.3,73.4-39.2,112
	C84.2,286.1,88,322.4,99,356.1l5.9,16.9c0.6,1.6,1.2,2.8,1.7,4l0.9,1.8c1.2,2.4,2.2,4.7,3.4,7.1c2,4.5,4,8.8,6.5,13.4l11.1,18.6
	c2.5,3.8,5.2,7.3,7.8,10.8c1.3,1.8,2.7,3.6,4.3,5.8c16.2,20,33.2,36.5,49.1,47.4c1.3,0.9,2.5,1.8,3.7,2.7c2.5,1.9,4.9,3.8,7.4,5.2
	l19,11.4l20.9,10c4.1,1.9,9,0.3,11.1-3.8c2.1-4.1,0.4-9.1-3.6-11.1L228.5,486l-17.8-11.6c-1.9-1.3-3.8-2.8-5.7-4.3
	c-1.2-1.1-2.6-2.1-4-3.2c-14.2-10.6-29.1-26.2-43.1-44.9c-1.3-1.9-2.6-3.8-3.9-5.7c-2.3-3.4-4.6-6.7-6.6-9.9l-9.7-17.6
	c-1.9-3.9-3.6-8.1-5.4-12.3c-0.9-2.5-2-4.9-3-7.2l-0.8-2c-0.4-0.9-0.8-1.9-1-2.4l-5-16.1c-8.6-30.5-10.9-63.1-6.6-94.6
	c4.7-33.9,18-67.6,38.3-97.6c19.3-29,48.7-54.8,82.9-72.5c31.2-16.1,66.1-24.3,103.6-24.3c2.5,0,4.9,0,6.9,0.1
	c17.1,1.3,37.1,3.5,56.7,10.1c5.9,1.5,11.7,3.9,17.8,6.5c2.9,1.2,5.8,2.4,8.2,3.4c2.6,1.2,5.2,2.5,7.7,3.9c1.6,0.9,3.3,1.7,4.7,2.5
	l2,1c3.5,1.8,6.8,3.5,10,5.8l11.9,7.8c2.3,1.6,4.5,3.4,6.7,5.1c1.5,1.2,2.7,2.3,4.4,3.6c5.3,3.8,9.9,8.3,14.8,13.2
	c1.7,1.7,3.5,3.5,5.6,5.4c1.7,1.6,3.3,3.6,5,5.7c1.2,1.4,2.3,2.8,3.2,3.8c1.2,1.4,2.2,2.7,3.5,4.1c1.8,2.1,3.5,4,4.8,6
	c1.7,2.7,3.6,5.3,5.5,8c3.4,4.8,6.5,9.4,8.9,14.4c16.9,29.9,26.4,62.1,28.3,95.8c1.6,29-3.1,59.2-13.9,87.3
	c-9.2,23.9-22.3,46-38.2,64c-2.2,2.6-4.5,4.9-6.8,7.2c-1.5,1.5-2.9,3-4.1,4.3c-0.8,0.7-1.5,1.5-2.2,2.2c-1,1.1-2,2.1-2.9,2.9
	l-5.8,4.8c-1.6,1.2-3,2.5-4.4,3.6c-2.1,1.9-4.2,3.6-6,5l-11,7.6c-4,3-8,5.1-11.7,7.1c-2,1.1-3.9,2.1-5.3,3c-1.2,0.6-2.2,1.2-3.2,1.7
	c-1.2,0.7-2.2,1.3-3.8,2l-22.5,9.5c-16.6,7.9-24,27.8-16.1,44.5c5.4,11.7,17.4,19.3,30.3,19.3c4.9,0,9.7-1.1,14.2-3.2l20.9-9.8
	c2-0.9,4.5-2.3,7-3.8l3.5-2.1c1.7-1.1,3.6-2.1,5.6-3.3c5.8-3.4,12.5-7.2,18.4-11.9l12.9-9.7c3.1-2.4,6-5.1,9-7.8
	c1.4-1.3,2.9-2.6,4.5-4l7.1-6.3c1.5-1.5,3.1-3.3,4.6-5l2.4-2.6c1.4-1.6,2.9-3.1,4.4-4.8c3.1-3.3,6.2-6.8,9.1-10.6
	c19.5-23.9,35.3-52.8,45.9-83.8C611.3,337.2,615.9,298.7,612.5,262L612.5,262z"/>
<rect id="_x3C_スライス_x3E_" x="82" y="13" class="st0" width="535" height="537"/>
</svg>
