<svg width="738px" height="97px" viewBox="0 0 738 97" version="1.1" xmlns="http://www.w3.org/2000/svg" xmlns:xlink="http://www.w3.org/1999/xlink">
    <g id="Page-1" stroke="none" stroke-width="1" fill="none" fill-rule="evenodd">
        <g id="PC_title_ol" transform="translate(-314.000000, -300.000000)" fill-rule="nonzero">
            <g id="title" transform="translate(314.990000, 300.440000)">
                <path d="M69.03,92.56 L72.28,77.22 L70.46,77.22 C68.12,85.28 64.48,90.48 61.36,90.48 L21.97,90.48 L21.97,11.31 C21.97,6.76 24.96,3.77 31.46,3.77 L31.46,1.69 L0,1.69 L0,3.77 C6.5,3.77 9.62,6.76 9.62,11.31 L9.62,82.94 C9.62,87.23 6.63,90.48 0,90.48 L0,92.56 L69.03,92.56 Z" id="L" fill="#FFFFFF"></path>
                <path d="M153.94,92.56 L157.19,77.22 L155.24,77.22 C152.9,85.28 149.39,90.48 146.27,90.48 L106.75,90.48 L106.75,44.46 L132.88,44.46 C136.13,44.46 141.59,46.67 141.46,56.16 L143.41,56.16 L143.41,30.81 L141.46,30.81 C141.59,40.17 136.13,42.38 132.88,42.38 L106.75,42.38 L106.75,3.9 L146.27,3.77 C149.39,3.77 152.9,8.97 155.24,17.03 L157.19,17.03 L153.94,1.69 L83.48,1.69 L83.48,3.77 C90.11,3.77 94.4,7.02 94.4,11.31 L94.4,82.94 C94.4,87.23 90.11,90.48 83.48,90.48 L83.48,92.56 L153.94,92.56 Z" id="E" fill="#FFFFFF"></path>
                <path d="M217.7,92.56 L217.7,90.48 C211.07,90.48 208.08,87.49 208.08,82.94 L208.08,3.77 L228.36,3.77 C231.48,3.77 235.12,8.97 237.46,17.03 L239.28,17.03 L236.03,1.69 L167.78,1.69 L164.53,17.03 L166.48,17.03 C168.82,8.97 172.33,3.77 175.45,3.77 L195.73,3.9 L195.73,82.94 C195.73,87.49 192.61,90.48 186.24,90.48 L186.24,92.56 L217.7,92.56 Z" id="T" fill="#FFFFFF"></path>
                <path d="M319.23,95.68 C340.68,95.68 355.37,85.41 355.37,69.94 C355.37,39.91 299.6,41.08 299.6,17.94 C299.6,8.58 308.44,1.82 321.05,1.82 C334.31,1.82 340.03,9.23 340.03,14.3 C340.03,17.94 337.17,19.76 334.05,20.67 C334.05,25.22 338.47,28.08 342.89,28.08 C347.57,28.08 350.17,24.44 350.17,19.37 C350.17,8.19 337.3,0 319.49,0 C300.77,0 288.16,8.97 288.16,22.1 C288.16,35.2664 300.709888,41.903264 313.761772,48.106423 L315.395,48.88 C329.0125,55.315 342.63,61.555 342.63,74.49 C342.63,85.8 332.23,93.73 317.8,93.73 C302.46,93.73 295.57,85.02 295.57,79.82 C295.57,76.44 298.43,74.49 301.55,73.71 C301.55,69.16 297.26,66.3 292.84,66.3 C288.03,66.3 285.43,69.81 285.43,74.88 C285.43,86.32 298.82,95.68 319.23,95.68 Z" id="S" fill="#FFFFFF"></path>
                <path d="M437.33,92.43 L437.33,90.35 C430.96,90.35 427.84,87.36 427.84,82.81 L427.84,53.69 L441.1,53.69 C459.56,53.69 471.78,43.03 471.78,27.17 C471.78,11.57 459.95,1.69 441.62,1.69 L408.73,1.69 L408.73,3.64 C412.89,3.64 415.49,5.33 415.49,7.41 L415.49,82.81 C415.49,87.36 412.5,90.35 405.87,90.35 L405.87,92.43 L437.33,92.43 Z M435.64,51.61 L427.84,51.61 L427.84,3.77 L435.64,3.77 C449.94,3.77 459.43,13.39 459.43,27.82 C459.43,41.86 450.33,51.61 435.64,51.61 Z" id="P" fill="#FFFFFF"></path>
                <path d="M554.03,92.56 L557.28,77.22 L555.46,77.22 C553.12,85.28 549.48,90.48 546.36,90.48 L506.97,90.48 L506.97,11.31 C506.97,6.76 509.96,3.77 516.46,3.77 L516.46,1.69 L485,1.69 L485,3.77 C491.5,3.77 494.62,6.76 494.62,11.31 L494.62,82.94 C494.62,87.23 491.63,90.48 485,90.48 L485,92.56 L554.03,92.56 Z" id="L" fill="#FFFFFF"></path>
                <path d="M588.07,92.56 L588.07,90.48 C581.7,90.48 578.84,87.49 580.53,82.94 L583.65,75.01 C589.5,66.69 606.4,57.59 623.3,53.43 L636.82,82.94 C638.77,87.49 637.08,90.48 630.58,90.48 L630.58,92.56 L663.47,92.56 L663.47,90.48 C656.84,90.48 652.55,87.49 650.47,82.94 L636.04,51.22 C638.77,50.96 641.37,50.83 643.84,51.09 L643.32,42.51 C639.81,42.38 636.17,42.77 632.4,43.42 L613.42,1.69 L609.91,1.69 L578.32,82.94 C576.5,87.49 573.25,90.48 566.62,90.48 L566.62,92.56 L588.07,92.56 Z M585.73,69.68 L606.53,16.38 L620.44,47.06 C605.62,53.04 591.97,63.31 585.73,69.68 Z" id="A" fill="#FFFFFF"></path>
                <path d="M708.87,92.56 L708.87,90.48 C702.24,90.48 699.25,87.49 699.25,82.94 L699.25,48.49 L723.3,11.31 C726.29,6.89 729.93,3.77 736.56,3.77 L736.56,1.69 L714.72,1.69 L714.72,3.77 C721.09,3.77 723.82,6.76 721.09,11.05 L698.73,45.24 L680.79,11.05 C678.84,7.02 680.79,3.77 687.03,3.77 L687.03,1.69 L653.36,1.69 L653.36,3.77 C659.99,3.77 663.89,6.76 666.36,11.31 L686.9,49.53 L686.9,82.94 C686.9,87.49 683.78,90.48 677.28,90.48 L677.28,92.56 L708.87,92.56 Z" id="Y" fill="#FFFFFF"></path>
                <path d="M260.33,26.57 C269.69,19.55 272.55,14.09 272.55,9.02 C272.55,4.86 269.43,1.22 265.01,1.22 C260.59,1.22 257.47,4.86 257.47,9.02 C257.47,13.18 261.5,16.17 266.05,15.65 C265.53,17.99 261.63,21.63 258.25,23.84 L260.33,26.57 Z" id="’" fill="#BC2127"></path>
            </g>
        </g>
    </g>
</svg>